<svg xmlns="http://www.w3.org/2000/svg" xmlns:xlink="http://www.w3.org/1999/xlink" width="636.727" height="471.184" viewBox="0 0 636.727 471.184"><defs><clipPath id="a"><path d="M0,239.092H636.727V-232.092H0Z" transform="translate(0 232.092)" fill="none"/></clipPath></defs><g transform="translate(636.727 471.184) rotate(180)"><g clip-path="url(#a)"><g transform="translate(0.718 45.048)"><path d="M0,80.076,157.808-77.732,315.619,80.076,157.808,237.885Z" transform="translate(0 77.732)" fill="none" stroke="#beb29b" stroke-width="1"/></g></g><g transform="translate(25.75 69.238)"><path d="M0,67.5,133.02-65.522,265.506,66.966,132.486,199.984Z" transform="translate(0 65.522)" fill="none" stroke="#beb29b" stroke-width="1"/></g><g clip-path="url(#a)"><g transform="translate(320.392 0.719)"><path d="M0,80.076,157.808-77.732,315.619,80.076,157.808,237.885Z" transform="translate(0 77.732)" fill="none" stroke="#beb29b" stroke-width="1"/></g></g><g transform="translate(345.424 24.909)"><path d="M0,67.5,133.02-65.522,265.506,66.966,132.486,199.984Z" transform="translate(0 65.522)" fill="none" stroke="#beb29b" stroke-width="1"/></g><g clip-path="url(#a)"><g transform="translate(240.001 154.849)"><path d="M0,80.076,157.808-77.732,315.619,80.076,157.808,237.885Z" transform="translate(0 77.732)" fill="none" stroke="#beb29b" stroke-width="1"/></g></g><g transform="translate(265.034 179.039)"><path d="M0,67.5,133.02-65.522,265.506,66.966,132.486,199.984Z" transform="translate(0 65.522)" fill="none" stroke="#beb29b" stroke-width="1"/></g></g></svg>