<?xml version="1.0" encoding="UTF-8"?> <!-- Generator: Adobe Illustrator 25.2.3, SVG Export Plug-In . SVG Version: 6.00 Build 0) --> <svg xmlns="http://www.w3.org/2000/svg" xmlns:xlink="http://www.w3.org/1999/xlink" version="1.1" id="Layer_1" x="0px" y="0px" width="727px" height="637px" viewBox="0 0 727 637" style="enable-background:new 0 0 727 637;" xml:space="preserve"> <style type="text/css"> .st0{fill:#F3565D;} </style> <path class="st0" d="M345.7,605.8c-0.9,0-1.8-0.3-2.7-0.8c-2.1-1.2-3.3-3.5-3.3-6l1-79c0.1-4.7,1.4-11.5,7.3-17.4l216.5-216.5 c0.9-0.9,2-1.5,3-1.6c1-0.1,1.9,0.2,2.8,0.8c1.7,1.2,2.8,3.6,2.8,6.3l-0.9,79.3c0,2.7-0.8,6-2.2,9.3c-1.4,3.3-3.2,6.2-5.1,8.1 L348.4,604.8C347.7,605.5,346.8,605.8,345.7,605.8z M568,285.5c-0.1,0-0.2,0-0.3,0c-0.8,0.1-1.6,0.5-2.4,1.3L348.8,503.3 c-5.7,5.7-7,12.2-7,16.7l-1,79c0,2.2,1,4.1,2.8,5.1c1.5,0.9,3.2,0.9,4.1-0.1l216.5-216.5c1.8-1.8,3.6-4.6,4.9-7.8 c1.3-3.2,2.1-6.4,2.1-8.9l0.9-79.3c0-2.4-0.9-4.5-2.3-5.5C569.2,285.7,568.6,285.5,568,285.5z"></path> <path class="st0" d="M537.9,1l-1.1,90.9c-0.1,6.1-1.9,13.6-5,21.1c-3.1,7.5-7.2,14-11.6,18.3L22,629.6c-2.6,2.6-7,2.8-11,0.4 c-4.5-2.6-7.1-7.5-7-12.9l2.3-181.9c0.1-10.5,3.1-25.9,16.6-39.4L417.6,1h-1.4L22.1,395.1C8.4,408.8,5.4,424.4,5.2,435.2L3,617 c-0.1,5.8,2.7,11,7.5,13.8c2.1,1.2,4.2,1.8,6.2,1.8c2.3,0,4.5-0.8,6-2.4L521,132c4.4-4.4,8.6-11,11.8-18.6c3.2-7.6,5-15.2,5.1-21.5 L539,1H537.9z"></path> <g> <path class="st0" d="M722.8,1L308.6,415.3c-2.1,2.1-5.7,2.2-9,0.3c-3.7-2.2-5.8-6.1-5.8-10.6l1.9-151.8c0.1-8.8,2.6-21.6,13.8-32.7 L528.8,1h-1.4L308.7,219.7c-11.4,11.4-13.9,24.5-14.1,33.4l-1.9,151.8c-0.1,4.9,2.3,9.2,6.3,11.5c1.7,1,3.5,1.5,5.2,1.5 c1.9,0,3.7-0.7,5-2l415-415H722.8z"></path> </g> </svg> 